<?xml version="1.0"?>
<svg xmlns:rdf="http://www.w3.org/1999/02/22-rdf-syntax-ns#" xmlns="http://www.w3.org/2000/svg" xmlns:cc="http://creativecommons.org/ns#" xmlns:xlink="http://www.w3.org/1999/xlink" xmlns:dc="http://purl.org/dc/elements/1.1/" xmlns:svg="http://www.w3.org/2000/svg" id="svg2" viewBox="0 0 610 610" version="1.1">
  <g id="layer6">
    <rect id="rect5840" stroke-linejoin="round" ry="1.5381" height="600" width="600" stroke="#4a0" y="5" x="5" stroke-width="10" fill="none"/>
  </g>
  <g id="layer1">
    <path id="path3353" d="m267 60-11.469 44.875c-8.229 1.6743-16.246 3.9522-24.094 6.5625l-32.5-33.375-52.812 30.688 12.625 44.5c-6.1633 5.4693-12.051 11.377-17.531 17.531l-44.876-12.28-30.594 52.81 33.312 32.5c-2.5832 7.7651-4.8957 15.674-6.5625 23.812l-44.812 11.75v60.969l44.812 11.54c1.6738 8.1735 3.9647 16.236 6.5625 24.031l-33.312 32.31 30.594 53 44.875-12.531c5.4432 6.1128 11.133 12.06 17.25 17.5l-12.344 44.875 52.812 30.344 32.219-33.125c7.7593 2.5926 15.71 4.8866 23.844 6.5625l12 44.875h61.031l12-44.875c7.7887-1.6159 15.523-3.7936 22.969-6.25l33.094 32.812 52.812-30.344-12.344-45.406c5.8753-5.2503 11.437-10.844 16.688-16.719l45.438 12.281 30.594-53-33.063-32.844c2.4223-7.3422 4.1136-15.012 5.7188-22.688l45.406-12.344v-60.969l-45.125-12.281c-1.6098-7.7583-3.5563-15.332-6-22.75l33.063-33.031-30.594-52.812-45.156 12c-5.2319-5.8625-10.834-11.446-16.688-16.687l12.07-45.06-52.82-30.688-33.09 33.128c-7.5288-2.4835-15.34-4.6881-23.219-6.3125h-0.28124l-11.47-44.88h-61.03zm29.969 97.75c42.131 0 80.104 17.293 107.47 45.125l-11.94 32.84c-21.958-28.701-56.594-47.188-95.531-47.188-66.369 0-120.16 53.787-120.16 120.16 0 66.369 53.787 120.16 120.16 120.16 66.369 0 120.16-53.787 120.16-120.16 0-7.8446-0.71701-15.553-2.1562-22.969l-28.344 4.875 14.219-39.625 14.5-39.5 27.312 32.062 26.938 32.437-24.375 4.375c1.7606 9.1953 2.6875 18.63 2.6875 28.344 0 83.366-67.571 150.91-150.94 150.91-83.366 0-150.91-67.54-150.91-150.91 0-83.366 67.54-150.94 150.91-150.94zm0.5 63.063c49.195 0 89.062 39.868 89.062 89.062 0 49.195-39.868 89.031-89.062 89.031-49.195 0-88.969-39.836-88.969-89.031s39.774-89.062 88.969-89.062z" fill="#4a0"/>
  </g>
  <metadata>
    <rdf:RDF>
      <cc:Work>
        <dc:format>image/svg+xml</dc:format>
        <dc:type rdf:resource="http://purl.org/dc/dcmitype/StillImage"/>
        <cc:license rdf:resource="http://creativecommons.org/licenses/publicdomain/"/>
        <dc:publisher>
          <cc:Agent rdf:about="http://openclipart.org/">
            <dc:title>Openclipart</dc:title>
          </cc:Agent>
        </dc:publisher>
        <dc:title>eco green recycling icon</dc:title>
        <dc:date>2013-09-16T17:29:34</dc:date>
        <dc:description/>
        <dc:source>http://openclipart.org/detail/183526/eco-green-recycling-icon-by-dominiquechappard-183526</dc:source>
        <dc:creator>
          <cc:Agent>
            <dc:title>dominiquechappard</dc:title>
          </cc:Agent>
        </dc:creator>
        <dc:subject>
          <rdf:Bag>
            <rdf:li>ecology</rdf:li>
            <rdf:li>green</rdf:li>
            <rdf:li>icon</rdf:li>
            <rdf:li>recycle</rdf:li>
            <rdf:li>recycling</rdf:li>
          </rdf:Bag>
        </dc:subject>
      </cc:Work>
      <cc:License rdf:about="http://creativecommons.org/licenses/publicdomain/">
        <cc:permits rdf:resource="http://creativecommons.org/ns#Reproduction"/>
        <cc:permits rdf:resource="http://creativecommons.org/ns#Distribution"/>
        <cc:permits rdf:resource="http://creativecommons.org/ns#DerivativeWorks"/>
      </cc:License>
    </rdf:RDF>
  </metadata>
</svg>
