<?xml version="1.0"?>
<svg xmlns:rdf="http://www.w3.org/1999/02/22-rdf-syntax-ns#" xmlns="http://www.w3.org/2000/svg" xmlns:cc="http://creativecommons.org/ns#" xmlns:xlink="http://www.w3.org/1999/xlink" xmlns:dc="http://purl.org/dc/elements/1.1/" xmlns:svg="http://www.w3.org/2000/svg" id="svg14881" height="200mm" width="200mm">
  <defs id="defs3">
    <linearGradient id="linearGradient4224">
      <stop id="stop4225" stop-color="#fff" stop-opacity=".56471" offset="0"/>
      <stop id="stop4226" stop-color="#fff" stop-opacity="0" offset="1"/>
    </linearGradient>
    <radialGradient id="radialGradient3598" gradientUnits="userSpaceOnUse" cy="382.39" cx="276.82" gradientTransform="matrix(1.3968 0 0 .71592 0 39.372)" r="407.43">
      <stop id="stop22987" stop-color="#15a329" offset="0"/>
      <stop id="stop22988" stop-color="#0a5314" offset="1"/>
    </radialGradient>
    <linearGradient id="linearGradient4227" y2="185.1" xlink:href="#linearGradient4224" gradientUnits="userSpaceOnUse" x2="93.74" gradientTransform="scale(1.0809 .92516)" y1="271.19" x1="269.54"/>
    <linearGradient id="linearGradient4229" y2="616.89" xlink:href="#linearGradient4224" gradientUnits="userSpaceOnUse" x2="186.37" gradientTransform="scale(1.0809 .92516)" y1="705.74" x1="417.93"/>
    <linearGradient id="linearGradient4852" y2="162.83" xlink:href="#linearGradient4224" gradientUnits="userSpaceOnUse" x2="172.96" gradientTransform="scale(1.0809 .92516)" y1="468.02" x1="831.08"/>
  </defs>
  <g id="layer1" fill-rule="evenodd">
    <path id="path2341" stroke-linejoin="round" d="m162.97 413.13c-10.97-95.33 47.94-207.56 190.52-213.47l-7.55 81.86c32.9-26.72 79.73-98.56 91.13-136.94-8.56-38.2-53.73-100.62-89.45-132.96l6.11 70.181c-232.18 3.375-334.26 208.66-309.08 352.84l51.218-43.15 67.102 21.64z" stroke="#235802" stroke-width="3.75" fill="url(#radialGradient3598)"/>
    <path id="path2969" stroke-linejoin="round" d="m427.72 218.9c87.14 40.2 152.37 148.88 83.27 273.74l-65.99-49.02c5.71 42 42.73 119.35 69.58 149.05 37.08 12.56 113.89 6.43 160.08-7.26l-63.12-31.28c117.85-200.07-4.42-394.01-140.66-447.48l10.22 66.19-53.38 46.06z" stroke="#235802" stroke-width="3.75" fill="url(#radialGradient3598)"/>
    <path id="path2970" stroke-linejoin="round" d="m465.79 539.14c-76.48 57.96-203.07 64.38-280.72-55.34l74.3-35.16c-39.74-14.73-125.41-18.47-164.26-8.75-28.525 26.81-59.256 97.46-68.915 144.67l57.297-40.98c121.08 198.13 349.75 181.51 461.03 86.45l-63.21-22.12-15.52-68.77z" stroke="#235802" stroke-width="3.75" fill="url(#radialGradient3598)"/>
    <path id="path3602" d="m125.27 226.06c-7.62 10.76 16.12 92.4 41.76 53.68 33.42-50.43 97.1-91.47 135.42-97.83 15.75-2.61 37.01-52.61-27.44-58.46-54.53-4.95-124.54 67.04-149.74 102.61z" fill="url(#linearGradient4227)"/>
    <path id="path4228" d="m246.46 577.06c-8.72-3.9-54.67 44.25-10.55 58.75 57.04 18.74 117.75 32.98 156.5 30.4 64.69-4.3 43.77-70.33 18.96-66.9-54.23 7.51-142.58-12.26-164.91-22.25z" fill="url(#linearGradient4229)"/>
    <path id="path4851" d="m557.15 419.65c-18.65 54.11 57.87 17.84 63.83-10.73 12.36-59.23-19.89-140.19-32.21-165.84-38.42-79.98-84.73-4.38-73.97 14.91 29.19 52.35 62.7 102.68 42.35 161.66z" fill="url(#linearGradient4852)"/>
  </g>
  <metadata>
    <rdf:RDF>
      <cc:Work>
        <dc:format>image/svg+xml</dc:format>
        <dc:type rdf:resource="http://purl.org/dc/dcmitype/StillImage"/>
        <cc:license rdf:resource="http://creativecommons.org/licenses/publicdomain/"/>
        <dc:publisher>
          <cc:Agent rdf:about="http://openclipart.org/">
            <dc:title>Openclipart</dc:title>
          </cc:Agent>
        </dc:publisher>
        <dc:title>recycling</dc:title>
        <dc:date>2009-07-07T22:31:10</dc:date>
        <dc:description>recycling icon</dc:description>
        <dc:source>http://openclipart.org/detail/27073/recycling-by-egore911</dc:source>
        <dc:creator>
          <cc:Agent>
            <dc:title>egore911</dc:title>
          </cc:Agent>
        </dc:creator>
        <dc:subject>
          <rdf:Bag>
            <rdf:li>cartoon</rdf:li>
            <rdf:li>clip art</rdf:li>
            <rdf:li>clipart</rdf:li>
            <rdf:li>icon</rdf:li>
            <rdf:li>image</rdf:li>
            <rdf:li>logo</rdf:li>
            <rdf:li>media</rdf:li>
            <rdf:li>public domain</rdf:li>
            <rdf:li>recycle</rdf:li>
            <rdf:li>sign</rdf:li>
            <rdf:li>svg</rdf:li>
          </rdf:Bag>
        </dc:subject>
      </cc:Work>
      <cc:License rdf:about="http://creativecommons.org/licenses/publicdomain/">
        <cc:permits rdf:resource="http://creativecommons.org/ns#Reproduction"/>
        <cc:permits rdf:resource="http://creativecommons.org/ns#Distribution"/>
        <cc:permits rdf:resource="http://creativecommons.org/ns#DerivativeWorks"/>
      </cc:License>
    </rdf:RDF>
  </metadata>
</svg>
